<svg width="36" height="36" viewBox="0 0 36 36" xmlns="http://www.w3.org/2000/svg"><title>spotify</title><path d="M28.33 15.924c-5.641-3.351-14.946-3.658-20.331-2.023a1.637 1.637 0 0 1-.95-3.133C13.23 8.89 23.507 9.253 30 13.108a1.636 1.636 0 1 1-1.671 2.816m-.185 4.962a1.366 1.366 0 0 1-1.877.449c-4.702-2.891-11.874-3.728-17.438-2.04a1.365 1.365 0 1 1-.792-2.61c6.355-1.93 14.257-.994 19.658 2.325.642.394.843 1.235.449 1.876m-2.141 4.765a1.091 1.091 0 0 1-1.5.363c-4.11-2.512-9.282-3.08-15.373-1.688a1.09 1.09 0 1 1-.486-2.126c6.666-1.524 12.385-.868 16.997 1.95.514.315.676.987.362 1.5M17.978.41C8.313.41.478 8.245.478 17.91c0 9.666 7.835 17.5 17.5 17.5s17.5-7.834 17.5-17.5c0-9.665-7.835-17.5-17.5-17.5" fill="#262524" fill-rule="evenodd"/></svg>