<svg viewBox="0 0 35 35" xmlns="http://www.w3.org/2000/svg" fill-rule="evenodd" clip-rule="evenodd" stroke-linejoin="round" stroke-miterlimit="2"><path d="M17.5 0C27.159 0 35 7.841 35 17.5 35 27.159 27.16 35 17.5 35 7.841 35 0 27.16 0 17.5 0 7.841 7.841 0 17.5 0zM7.921 17.315c5.102-2.222 8.504-3.688 10.206-4.396 4.86-2.021 5.87-2.372 6.528-2.384.145-.002.468.033.678.204a.736.736 0 0 1 .25.474c.023.136.052.446.029.688-.264 2.768-1.403 9.483-1.983 12.582-.245 1.312-.728 1.751-1.196 1.794-1.016.094-1.788-.671-2.772-1.316-1.54-1.01-2.41-1.639-3.906-2.624-1.728-1.138-.607-1.764.377-2.787.258-.268 4.736-4.34 4.822-4.71.011-.046.021-.218-.081-.31-.103-.09-.254-.06-.362-.035-.155.035-2.616 1.662-7.382 4.88-.699.48-1.331.713-1.898.7-.625-.013-1.827-.353-2.72-.643-1.096-.356-1.967-.545-1.891-1.15.039-.315.473-.637 1.301-.967z" fill="#262524"/></svg>