<svg xmlns="http://www.w3.org/2000/svg" width="186.02" height="30" viewBox="0 0 186.02 30">
  <title>logo-black</title>
  <g id="Livello_2" data-name="Livello 2">
    <g id="Livello_1-2" data-name="Livello 1">
      <path d="M21.69,6.64h.41L12.25,30H10.41L0,6.64H3l8.24,18.44,7.9-18.44Zm1.46,0V29.55h2.93V6.64H23.15ZM42,19.09c-1.71-1.53-4.18-2.23-6.2-3.07a8.74,8.74,0,0,1-2.53-1.42,2.76,2.76,0,0,1-1-2.16A3.15,3.15,0,0,1,33.58,10a5.18,5.18,0,0,1,3.23-1c1.93,0,3.51.61,6,2.25l.41.27V8.2l-.13-.08A11.85,11.85,0,0,0,37,6.19,8.19,8.19,0,0,0,31.66,8a5.94,5.94,0,0,0-2.19,4.56,5.21,5.21,0,0,0,1.91,4.18c1.7,1.47,4.17,2.2,6.19,3.07a9,9,0,0,1,2.52,1.49,2.79,2.79,0,0,1,1,2.17,3.28,3.28,0,0,1-1.24,2.6,5.07,5.07,0,0,1-3.23,1c-2.09,0-4-.53-6.9-2l-.39-.2v2.93l.13.08A12.87,12.87,0,0,0,36.31,30h0a8.33,8.33,0,0,0,5.38-1.84,6,6,0,0,0,2.21-4.61A5.74,5.74,0,0,0,42,19.09ZM46.64,6.64V29.55h2.93V6.64H46.64Zm26.22,3a12,12,0,0,1,3.31,8.52,12,12,0,0,1-3.31,8.48A11.49,11.49,0,0,1,64.54,30h0a11.59,11.59,0,0,1-8.35-3.4,12,12,0,0,1-3.33-8.48A12,12,0,0,1,56.19,9.6a11.89,11.89,0,0,1,16.67,0Zm.23,8.52c0-5.2-3.67-9-8.55-9s-8.59,3.8-8.6,9.05,3.66,9,8.6,9S73.08,23.32,73.09,18.12ZM89.25,6.19C86.14,6.18,84,7.31,82,10.07V6.64H79.11V29.55H82V13.66C84,10.5,86,9.08,89.1,9.07a5.18,5.18,0,0,1,4.31,1.87,8.93,8.93,0,0,1,1.5,5.58v13h2.93V15.63a9.81,9.81,0,0,0-2.44-7A8.32,8.32,0,0,0,89.25,6.19Zm28.33.72v3.17c-2-2.77-4.1-3.9-7.21-3.89a8.32,8.32,0,0,0-6.15,2.41,9.81,9.81,0,0,0-2.44,7V29.55h2.93v-13a8.93,8.93,0,0,1,1.5-5.58,5.18,5.18,0,0,1,4.31-1.87c3.12,0,5.09,1.43,7.06,4.59V29.55h2.93V6.64h-2.93Zm24.85,18.28.44-.35v2.68l-.51.38c-2.24,1.7-3.26,2.1-4.29,2.1a1.87,1.87,0,0,1-.8-.15,1.24,1.24,0,0,1-.57-.54,5,5,0,0,1-.45-1.86,11,11,0,0,1-6.8,2.55h0A6.45,6.45,0,0,1,125,28.26a5.77,5.77,0,0,1-1.82-4.21c0-3,1.72-5.1,4.22-6.4a22.22,22.22,0,0,1,8.83-2V13a4.19,4.19,0,0,0-1.15-3.22,5.05,5.05,0,0,0-3.56-1.1c-2.32,0-4,.8-6.67,2.79l-.43.32V8.7l.13-.08a13.23,13.23,0,0,1,7.37-2.43,9,9,0,0,1,4.67,1.2,5.39,5.39,0,0,1,2.57,4.9v14a2,2,0,0,0,.1.79c.05.09,0,.08.18.09a1.29,1.29,0,0,0,.45-.15c.21-.11.47-.26.76-.45C141.18,26.15,141.84,25.66,142.43,25.19Zm-6.23-7.06h-.52a13.45,13.45,0,0,0-6.85,1.67,5.06,5.06,0,0,0-2.76,4.26,3.16,3.16,0,0,0,1.17,2.42,4.65,4.65,0,0,0,3,1c2,0,3.68-.73,6-2.74Zm8.16-11.49V29.55h2.93V6.64h-2.93ZM166,11.76l1.69-2.71-.17-.15c-2.2-2-3.67-2.71-5.31-2.71-2.53,0-5.12,2-7.66,5.84V6.64h-2.93V29.55h2.93V15.3c2.41-4.07,4.92-6.25,6.91-6.23a3.34,3.34,0,0,1,1.77.51,14.18,14.18,0,0,1,2.53,2Zm2.35,5.78c0,.3,0,.6,0,.89A8.55,8.55,0,0,0,171,24.65,8.8,8.8,0,0,0,177,27.12c2.93,0,5.29-1,8.16-3.28l.44-.35v3.38l-.11.08A13.68,13.68,0,0,1,176.75,30h0a11.08,11.08,0,0,1-8.21-3.44,12.62,12.62,0,0,1-3.23-8.74,12.29,12.29,0,0,1,3-8.33,10.32,10.32,0,0,1,14.5-.62,11.09,11.09,0,0,1,3.24,8.4v.27Zm.4-2.48h13.84a8.25,8.25,0,0,0-2.27-4.44,6.37,6.37,0,0,0-4.48-1.55C172.37,9.08,169.66,11.27,168.75,15.06ZM52.87,2.59h2.06V4.42h.81V.05h-.81V1.83H52.87V.05h-.81V4.42h.81ZM59.4,3.82a2.2,2.2,0,0,1-.66-1.58A2.2,2.2,0,0,1,59.4.65a2.37,2.37,0,0,1,3.26,0,2.17,2.17,0,0,1,.67,1.59,2.21,2.21,0,0,1-.67,1.59A2.34,2.34,0,0,1,61,4.47h0A2.31,2.31,0,0,1,59.4,3.82Zm.17-1.58A1.43,1.43,0,0,0,61,3.68a1.41,1.41,0,0,0,1.45-1.44A1.42,1.42,0,0,0,61,.79,1.44,1.44,0,0,0,59.57,2.24Zm7.55-.78L68.33,3l1.22-1.5v3h.81V.05h-.68L68.34,1.7,67,.05h-.68V4.42h.81Zm7.21,1.15h1.75V1.84H74.33v-1h1.8V.05H73.51V4.42h2.67V3.66H74.33Zm9.88,1.81h-.82V.05h1.32a1.63,1.63,0,0,1,1.14.37,1.2,1.2,0,0,1,.38.91,1.21,1.21,0,0,1-.35.88,1.61,1.61,0,0,1-1.2.41h-.47Zm0-2.57h.46a.8.8,0,0,0,.58-.16.42.42,0,0,0,.14-.36A.42.42,0,0,0,85.25,1,.74.74,0,0,0,84.7.81h-.49Zm5.66.74h2V4.42h.82V.05h-.82V1.83h-2V.05h-.82V4.42h.82ZM96.7.05h-.81V4.42h.81Zm5.86,3.61h-1.91V.05h-.81V4.42h2.72Zm3.21.16a2.2,2.2,0,0,1-.66-1.58,2.2,2.2,0,0,1,.66-1.59,2.37,2.37,0,0,1,3.26,0,2.17,2.17,0,0,1,.67,1.59A2.17,2.17,0,0,1,109,3.82a2.29,2.29,0,0,1-1.63.65h0A2.31,2.31,0,0,1,105.77,3.82Zm.17-1.58A1.47,1.47,0,1,0,107.41.79,1.43,1.43,0,0,0,105.94,2.24Zm6.94-.09a4.09,4.09,0,0,0,1,.51.85.85,0,0,1,.33.21.41.41,0,0,1,.1.3.52.52,0,0,1-.55.51c-.24,0-.4-.06-.83-.36l-.4-.3V4l.11.08a2,2,0,0,0,1.13.38,1.34,1.34,0,0,0,1.38-1.31,1.2,1.2,0,0,0-.37-.91,3.37,3.37,0,0,0-1-.52,1,1,0,0,1-.33-.2.37.37,0,0,1-.1-.26.51.51,0,0,1,.56-.48,1.34,1.34,0,0,1,.74.26l.38.22V.35l-.13-.07a2,2,0,0,0-1-.28,1.31,1.31,0,0,0-1.36,1.28A1.09,1.09,0,0,0,112.88,2.15Zm9-1.5a2.17,2.17,0,0,1,.67,1.59,2.21,2.21,0,0,1-.67,1.59,2.32,2.32,0,0,1-1.63.64h0a2.26,2.26,0,0,1-1.62-.65A2.17,2.17,0,0,1,118,2.24a2.17,2.17,0,0,1,.67-1.59A2.26,2.26,0,0,1,120.25,0,2.29,2.29,0,0,1,121.88.65Zm-.16,1.59a1.46,1.46,0,0,0-2.92,0,1.46,1.46,0,0,0,2.92,0Zm4.63,2.18h-.81V.05h1.32A1.64,1.64,0,0,1,128,.42a1.23,1.23,0,0,1,.38.91,1.21,1.21,0,0,1-.35.88,1.64,1.64,0,0,1-1.2.41h-.48Zm0-2.57h.46a.83.83,0,0,0,.59-.16.44.44,0,0,0,.14-.36A.45.45,0,0,0,127.4,1a.76.76,0,0,0-.55-.17h-.5Zm5.66.74h2.06V4.42h.82V.05h-.82V1.83H132V.05h-.81V4.42H132Zm7.08,1.83h.81V2.19L141.69.05h-1L139.5,1.44,138.33.05h-1l1.79,2.14ZM23.15.38V4.3h2.93V.38H23.15Zm26.42,0H46.64V4.3h2.93Zm97.69,0h-2.93V4.3h2.93Z" style="fill: #333"/>
    </g>
  </g>
</svg>
