<svg xmlns="http://www.w3.org/2000/svg" width="16" height="16" viewBox="0 0 16 16"><title>pinterest_1</title><g data-name="Livello 2"><path d="M2.34 2.34A7.72 7.72 0 0 1 8 0a7.72 7.72 0 0 1 5.66 2.34A7.72 7.72 0 0 1 16 8a7.72 7.72 0 0 1-2.34 5.66A7.72 7.72 0 0 1 8 16a7.72 7.72 0 0 1-5.66-2.34A7.72 7.72 0 0 1 0 8a7.72 7.72 0 0 1 2.34-5.66zm10.52 10.52a6.63 6.63 0 0 0 2-4.86 6.65 6.65 0 0 0-2-4.86 6.65 6.65 0 0 0-4.86-2 6.63 6.63 0 0 0-4.86 2 6.65 6.65 0 0 0-2 4.86 6.63 6.63 0 0 0 2 4.86 7.1 7.1 0 0 0 1.72 1.21 1.78 1.78 0 0 1 0-.28c0-.12.05-.22.07-.29L6 9.14a2.66 2.66 0 0 1-.29-1.28 2.3 2.3 0 0 1 .47-1.48 1.36 1.36 0 0 1 1.11-.59 1 1 0 0 1 .78.35 1.35 1.35 0 0 1 .29.86 2.93 2.93 0 0 1-.13.79c-.08.31-.19.66-.32 1.07a9.67 9.67 0 0 0-.27 1 1.19 1.19 0 0 0 .24 1.09 1.22 1.22 0 0 0 1 .45 2.08 2.08 0 0 0 1.82-1.24 5.86 5.86 0 0 0 .72-3 2.89 2.89 0 0 0-.88-2.2 3.38 3.38 0 0 0-2.44-.84A3.77 3.77 0 0 0 5.27 5.2a3.72 3.72 0 0 0-1.09 2.69 2.39 2.39 0 0 0 .53 1.57.43.43 0 0 1 .11.43s-.06.16-.11.32a2.46 2.46 0 0 0-.07.33q-.1.32-.39.21c-1.1-.45-1.64-1.48-1.64-3.07a4.83 4.83 0 0 1 1.53-3.45 5.65 5.65 0 0 1 4.18-1.55A5 5 0 0 1 12 4.05a4.34 4.34 0 0 1 1.43 3.24 6.22 6.22 0 0 1-1.19 3.92 3.77 3.77 0 0 1-3.13 1.54 2.41 2.41 0 0 1-1.19-.29 1.63 1.63 0 0 1-.77-.71c-.29 1.24-.47 2-.54 2.21a5.85 5.85 0 0 1-.25.68 6.35 6.35 0 0 0 1.64.22 6.65 6.65 0 0 0 4.86-2z" fill="#333" data-name="Livello 1"/></g></svg>