<svg xmlns="http://www.w3.org/2000/svg" width="20" height="16.17" viewBox="0 0 20 16.17"><title>wechat_1</title><g data-name="Livello 2"><path d="M16 9.76a.81.81 0 1 1 .81-.8.8.8 0 0 1-.81.8m-4 0a.81.81 0 1 1 .8-.8.8.8 0 0 1-.8.8m6 4.6a4.74 4.74 0 0 0 2-3.8c0-2.77-2.7-5-6-5s-6 2.25-6 5 2.7 5 6 5a7.36 7.36 0 0 0 2-.27.57.57 0 0 1 .18 0 .73.73 0 0 1 .32.09l1.32.76a.15.15 0 0 0 .11 0 .2.2 0 0 0 .2-.2.8.8 0 0 0 0-.15l-.27-1a.51.51 0 0 1 0-.13.4.4 0 0 1 .17-.32M9.64 5.06a1 1 0 1 1 1-1 1 1 0 0 1-1 1m-4.82 0a1 1 0 1 1 1-1 1 1 0 0 1-1 1M7.23 0C3.24 0 0 2.7 0 6a5.67 5.67 0 0 0 2.5 4.56.47.47 0 0 1 .2.39.4.4 0 0 1 0 .15l-.32 1.22a.53.53 0 0 0 0 .17.25.25 0 0 0 .24.25.24.24 0 0 0 .14 0l1.58-.91a.75.75 0 0 1 .6-.08 8.62 8.62 0 0 0 2.36.33h.4a4.6 4.6 0 0 1-.25-1.48c0-3 3-5.49 6.6-5.49h.39C13.82 2.2 10.84 0 7.23 0" fill="#333" data-name="Livello 1"/></g></svg>