<svg xmlns="http://www.w3.org/2000/svg" width="17" height="12.75" viewBox="0 0 17 12.75"><title>youtube_1</title><g data-name="Livello 2"><path d="M16.9 2.82C17 4 17 5.2 17 6.38s0 2.35-.1 3.55a2.75 2.75 0 0 1-.71 1.91 2.29 2.29 0 0 1-1.75.78q-2.55.14-5.94.13t-5.94-.13a2.29 2.29 0 0 1-1.75-.78A2.75 2.75 0 0 1 .1 9.93C0 8.73 0 7.55 0 6.38c0-.78 0-2 .13-3.56A2.79 2.79 0 0 1 .83.91 2.22 2.22 0 0 1 2.56.13C4.17 0 6.05 0 8.2 0h.6c2.15 0 4 0 5.64.13a2.29 2.29 0 0 1 1.75.78 2.75 2.75 0 0 1 .71 1.91zm-10 6.81l4.82-3.25-4.85-3.29z" fill="#333" data-name="Livello 1"/></g></svg>