<svg viewBox="0 0 16 16" xmlns="http://www.w3.org/2000/svg" xmlns:serif="http://www.serif.com/" fill-rule="evenodd" clip-rule="evenodd" stroke-linejoin="round" stroke-miterlimit="2"><path serif:id="Tavola da disegno1" fill="none" d="M0 0h16v16H0z"/><path d="M5.544 0h4.912C14.939 0 16 1.061 16 5.544v4.912C16 14.939 14.939 16 10.456 16H5.544C1.061 16 0 14.939 0 10.456V5.544C0 1.061 1.061 0 5.544 0zm7.554 5.51c.079-.248 0-.429-.35-.429h-1.163c-.294 0-.429.158-.508.328 0 0-.599 1.445-1.434 2.382-.271.271-.395.361-.542.361-.079 0-.181-.09-.181-.338V5.499c0-.294-.09-.429-.338-.429h-1.83c-.18 0-.293.135-.293.271 0 .282.417.35.463 1.14v1.717c0 .372-.068.44-.215.44-.395 0-1.355-1.457-1.931-3.116-.113-.328-.226-.452-.519-.452H3.083c-.339 0-.396.158-.396.327 0 .305.396 1.841 1.841 3.873.96 1.389 2.326 2.134 3.557 2.134.745 0 .835-.169.835-.451v-1.05c0-.339.068-.396.305-.396.169 0 .474.091 1.163.757.791.79.926 1.152 1.366 1.152h1.163c.339 0 .497-.17.407-.497-.102-.328-.486-.802-.982-1.366-.271-.317-.678-.667-.802-.836-.169-.226-.124-.316 0-.519-.011 0 1.411-2.01 1.558-2.688z" fill="#333"/></svg>