<svg viewBox="0 0 38 31" xmlns="http://www.w3.org/2000/svg" fill-rule="evenodd" clip-rule="evenodd" stroke-linejoin="round" stroke-miterlimit="2"><path d="M28.89 14.816c-1.37-.53-1.37-.53-1-2 .72-2.53-.39-4.07-3-4.2a2.58 2.58 0 0 0-.68 0c-1.61.38-3.21.78-4.81 1.15a5.666 5.666 0 0 1-.92.06 7.846 7.846 0 0 1 0-.84 17.215 17.215 0 0 0 .25-2.222 2.532 2.532 0 0 0-2.77-2.508 7.51 7.51 0 0 0-2.75.49A22.4 22.4 0 0 0 .73 17.026c-1.61 3.85-.51 7.27 2.84 9.74 3.64 2.67 7.82 3.55 12.24 3.56h1.27c5-.27 9.59-1.71 13.24-5.36.489-.488.928-1.024 1.31-1.6 2.35-3.58 1.24-7.01-2.74-8.55zm-4.43 9.65a13.22 13.22 0 0 1-7.52 3.6c-2.99.59-6.088.24-8.87-1-5.28-2.45-5.76-7.64-1.05-11a15.086 15.086 0 0 1 8.63-2.75 13.592 13.592 0 0 1 7.87 2c3.55 2.33 3.93 6.1.94 9.15zm12.89-16.24C36.657 3.522 32.578 0 27.823 0c-.697 0-1.392.076-2.073.226a1.245 1.245 0 0 0-1.12 1.45 1.304 1.304 0 0 0 1.58 1.07l1.45-.12a6.806 6.806 0 0 1 5.74 2.8 6.945 6.945 0 0 1 1.33 6.27c-.3 1.21 0 1.83.84 2 .84.17 1.48-.22 1.63-1.36.232-1.357.282-2.74.15-4.11zm-6.38 3.8c.79.12 1.16-.35 1.34-1.09.087-.36.13-.73.13-1.1 0-2.562-2.107-4.67-4.67-4.67h-.43c-.8 0-1.5.26-1.5 1.15 0 .89.69 1.08 1.51 1.06 2-.05 3 1.18 2.75 3.16-.07.71.02 1.36.87 1.49zm-15.24 4.31a6.598 6.598 0 0 0-6.29 2.58 4.497 4.497 0 0 0-.61 5c1 2 2.88 2.7 4.93 2.82a7.11 7.11 0 0 0 4.26-1.43 5.14 5.14 0 0 0 2.19-5.37 4.94 4.94 0 0 0-4.48-3.6zm-3.53 8.06a1.678 1.678 0 0 1-1.76-1.58 2.28 2.28 0 0 1 2.29-2.11 1.668 1.668 0 0 1 1.81 1.62 2.31 2.31 0 0 1-2.37 2.07h.03zm3.75-3.31a.723.723 0 0 1-.947-.683.722.722 0 1 1 1.367-.317.793.793 0 0 1-.45 1h.03z" fill="#262524" fill-rule="nonzero"/></svg>