<svg xmlns="http://www.w3.org/2000/svg" width="18.38" height="18.38" viewBox="0 0 18.38 18.38"><title>whatsapp</title><g data-name="Livello 2"><path d="M3 2.6A8.79 8.79 0 0 1 9.35 0a8.78 8.78 0 0 1 6.38 2.6 8.59 8.59 0 0 1 2.65 6.34 8.59 8.59 0 0 1-2.65 6.34 8.74 8.74 0 0 1-6.38 2.6A9.3 9.3 0 0 1 5 16.78l-5 1.6 1.64-4.8A8.88 8.88 0 0 1 .33 8.94 8.58 8.58 0 0 1 3 2.6zm6.35-1.29A7.58 7.58 0 0 0 3.9 3.57a7.3 7.3 0 0 0-2.26 5.37 7.38 7.38 0 0 0 1.11 3.94l.33.53-.21.59-.78 2.33 2.5-.78.54-.16.49.25a7.77 7.77 0 0 0 3.73.94 7.62 7.62 0 0 0 5.46-2.21 7.41 7.41 0 0 0 2.25-5.42 7.33 7.33 0 0 0-2.25-5.37 7.6 7.6 0 0 0-5.46-2.27zM7.3 5c.06.14.13.35.23.62s.19.52.28.74a2.1 2.1 0 0 1 .19.37.57.57 0 0 1 0 .41 1.69 1.69 0 0 1-.25.37l-.37.37a.4.4 0 0 0-.12.49A5.82 5.82 0 0 0 8.45 10a7.69 7.69 0 0 0 1.8 1.23c.22.11.39.09.5 0l.39-.43c.2-.24.33-.38.39-.44a.43.43 0 0 1 .53-.12c.08 0 .34.17.78.41s.68.39.74.41a1.36 1.36 0 0 1 .45.29c.08.16 0 .52-.21 1.07a1.33 1.33 0 0 1-.65.67 2.45 2.45 0 0 1-.91.35c0 .08-.24.1-.65 0a9.63 9.63 0 0 1-2.09-.7 7.61 7.61 0 0 1-.93-.49 4.86 4.86 0 0 1-.82-.61c-.23-.22-.46-.44-.67-.66a6.85 6.85 0 0 1-.58-.66c-.16-.21-.3-.41-.41-.57s-.2-.31-.29-.45l-.12-.19a3.72 3.72 0 0 1-.86-2.38 2.81 2.81 0 0 1 .9-1.89.88.88 0 0 1 .62-.29h.41c.23 0 .42.15.53.45z" fill="#262524" data-name="Livello 1"/></g></svg>