<svg xmlns="http://www.w3.org/2000/svg" width="15.75" height="15.75" viewBox="0 0 15.75 15.75"><title>linkedin</title><g data-name="Livello 2"><path d="M14.48 0a1.29 1.29 0 0 1 .9.35 1.15 1.15 0 0 1 .37.88V14.4a1.35 1.35 0 0 1-.37.94 1.19 1.19 0 0 1-.9.41H1.35a1.31 1.31 0 0 1-.94-.41A1.31 1.31 0 0 1 0 14.4V1.23A1.13 1.13 0 0 1 .39.35a1.4 1.4 0 0 1 1-.35zm-.12 14.44a.07.07 0 0 0 .08-.08v-13a.07.07 0 0 0-.08-.08h-13a.07.07 0 0 0-.08.08v12.95c0 .09 0 .13.13.13zM3.81 5A1.14 1.14 0 0 1 3 4.7a1.2 1.2 0 0 1-.33-.84 1.2 1.2 0 0 1 1.19-1.24 1.15 1.15 0 0 1 .86.38 1.25 1.25 0 0 1 .28.86 1.17 1.17 0 0 1-.34.84 1.22 1.22 0 0 1-.85.3zm1.07 8.08H2.62v-7h2.26zM10.54 6a2.42 2.42 0 0 1 1.87.78A3.26 3.26 0 0 1 13.12 9v4.1h-2.25V9.27c0-1-.38-1.52-1.15-1.52a1.17 1.17 0 0 0-1.15.82 1.52 1.52 0 0 0-.08.58v4H6.23v-7h2.26v1A2.44 2.44 0 0 1 10.54 6z" fill="#262524" data-name="Livello 1"/></g></svg>